<svg width="30" height="30" viewBox="0 0 30 30" fill="none" xmlns="http://www.w3.org/2000/svg">
<circle cx="15" cy="15" r="15" fill="url(#paint0_linear_4_1264)"/>
<path d="M12.5 16.6667C13.6508 16.6667 14.6925 16.2 15.4467 15.4458C16.2 14.6925 16.6667 13.6508 16.6667 12.5C16.6667 11.3492 16.2 10.3075 15.4467 9.55417C14.6925 8.8 13.6508 8.33334 12.5 8.33334C11.3492 8.33334 10.3075 8.8 9.55333 9.55417C8.8 10.3075 8.33333 11.3492 8.33333 12.5C8.33333 13.6508 8.8 14.6925 9.55333 15.4458C9.94025 15.8329 10.3996 16.1399 10.9052 16.3494C11.4108 16.5588 11.9527 16.6667 12.5 16.6667ZM12.5 22.5C15.4317 22.5 17.5 21.6667 17.5 20.8333C17.5 19.1667 15.5383 17.5 12.5 17.5C9.375 17.5 7.5 19.1667 7.5 20.8333C7.5 21.6667 9.375 22.5 12.5 22.5ZM22.5 15H20.8333V13.3333C20.8333 13.1123 20.7455 12.9004 20.5893 12.7441C20.433 12.5878 20.221 12.5 20 12.5C19.779 12.5 19.567 12.5878 19.4107 12.7441C19.2545 12.9004 19.1667 13.1123 19.1667 13.3333V15H17.5C17.279 15 17.067 15.0878 16.9107 15.2441C16.7545 15.4004 16.6667 15.6123 16.6667 15.8333C16.6667 16.0543 16.7545 16.2663 16.9107 16.4226C17.067 16.5789 17.279 16.6667 17.5 16.6667H19.1667V18.3333C19.1667 18.5543 19.2545 18.7663 19.4107 18.9226C19.567 19.0789 19.779 19.1667 20 19.1667C20.221 19.1667 20.433 19.0789 20.5893 18.9226C20.7455 18.7663 20.8333 18.5543 20.8333 18.3333V16.6667H22.5C22.721 16.6667 22.933 16.5789 23.0893 16.4226C23.2455 16.2663 23.3333 16.0543 23.3333 15.8333C23.3333 15.6123 23.2455 15.4004 23.0893 15.2441C22.933 15.0878 22.721 15 22.5 15Z" fill="white"/>
<defs>
<linearGradient id="paint0_linear_4_1264" x1="15" y1="0" x2="15" y2="30" gradientUnits="userSpaceOnUse">
<stop stop-color="#3AB557"/>
<stop offset="1" stop-color="#194F26"/>
</linearGradient>
</defs>
</svg>
