<svg width="30" height="30" viewBox="0 0 30 30" fill="none" xmlns="http://www.w3.org/2000/svg">
<path d="M14.95 17.365C14.965 17.37 14.985 17.37 15 17.37C15.015 17.37 15.035 17.37 15.05 17.365H14.95ZM14.95 17.365C14.965 17.37 14.985 17.37 15 17.37C15.015 17.37 15.035 17.37 15.05 17.365H14.95ZM3 8.73999V25.54C3 26.34 3.66 27 4.46 27H25.54C26.345 27 27 26.34 27 25.54V8.73999H3ZM17.84 19.67C17.06 20.295 16.08 20.67 15 20.67C13.925 20.67 12.94 20.295 12.165 19.67C11.145 18.84 10.49 17.575 10.49 16.16C10.49 13.665 12.51 11.645 15 11.645C17.495 11.645 19.515 13.665 19.515 16.16C19.515 17.575 18.86 18.84 17.84 19.67ZM15 17.37C15.015 17.37 15.035 17.37 15.05 17.365H14.95C14.965 17.37 14.985 17.37 15 17.37ZM14.95 17.365C14.965 17.37 14.985 17.37 15 17.37C15.015 17.37 15.035 17.37 15.05 17.365H14.95ZM14.95 17.365C14.965 17.37 14.985 17.37 15 17.37C15.015 17.37 15.035 17.37 15.05 17.365H14.95Z" fill="#DBFDE2"/>
<path d="M25.54 27.5H4.46C3.38 27.5 2.5 26.62 2.5 25.54V8.73999C2.5 8.46499 2.725 8.23999 3 8.23999H27C27.275 8.23999 27.5 8.46499 27.5 8.73999V25.54C27.5 26.62 26.62 27.5 25.54 27.5ZM3.5 9.23999V25.54C3.5 26.06 3.94 26.5 4.46 26.5H25.54C26.07 26.5 26.5 26.07 26.5 25.54V9.23999H3.5ZM15 21.17C13.855 21.17 12.74 20.775 11.85 20.06C10.665 19.095 9.99 17.675 9.99 16.16C9.99 13.395 12.24 11.145 15 11.145C17.765 11.145 20.015 13.395 20.015 16.16C20.015 17.675 19.335 19.095 18.155 20.06C18.155 20.06 18.155 20.06 18.15 20.06C17.245 20.785 16.155 21.17 15 21.17ZM15 12.145C12.79 12.145 10.99 13.945 10.99 16.16C10.99 17.375 11.535 18.51 12.48 19.28C13.2 19.86 14.07 20.17 15 20.17C15.925 20.17 16.8 19.865 17.525 19.28C18.47 18.51 19.015 17.37 19.015 16.16C19.015 13.945 17.215 12.145 15 12.145ZM15 17.87C14.965 17.87 14.885 17.87 14.79 17.84C14.585 17.77 14.45 17.58 14.45 17.365C14.45 17.34 14.45 17.31 14.455 17.285C14.495 17.045 14.705 16.865 14.95 16.865H15.05C15.295 16.865 15.505 17.045 15.545 17.285C15.55 17.31 15.55 17.335 15.55 17.365C15.55 17.58 15.415 17.775 15.205 17.84C15.115 17.87 15.035 17.87 15 17.87Z" fill="#1D542A"/>
<path d="M27 4.46V8.74H3V4.46C3 3.655 3.66 3 4.46 3H25.54C26.345 3 27 3.655 27 4.46Z" fill="#DBFDE2"/>
<path d="M27 9.24H3C2.725 9.24 2.5 9.015 2.5 8.74V4.46C2.5 3.38 3.38 2.5 4.46 2.5H25.54C26.62 2.5 27.5 3.38 27.5 4.46V8.74C27.5 9.015 27.275 9.24 27 9.24ZM3.5 8.24H26.5V4.46C26.5 3.93 26.07 3.5 25.54 3.5H4.46C3.93 3.5 3.5 3.93 3.5 4.46V8.24Z" fill="#1D542A"/>
<path d="M5.46001 6.74999C5.18501 6.74999 4.96001 6.52499 4.96001 6.24999V5.48499C4.96001 5.20999 5.18501 4.98499 5.46001 4.98499C5.73501 4.98499 5.96001 5.20999 5.96001 5.48499V6.24999C5.96001 6.52999 5.73501 6.74999 5.46001 6.74999Z" fill="#1D542A"/>
<path d="M7.565 6.74999C7.29 6.74999 7.065 6.52499 7.065 6.24999V5.48499C7.065 5.20999 7.29 4.98499 7.565 4.98499C7.84 4.98499 8.065 5.20999 8.065 5.48499V6.24999C8.065 6.52999 7.845 6.74999 7.565 6.74999Z" fill="#1D542A"/>
<path d="M9.67 6.74999C9.395 6.74999 9.17 6.52499 9.17 6.24999V5.48499C9.17 5.20999 9.395 4.98499 9.67 4.98499C9.945 4.98499 10.17 5.20999 10.17 5.48499V6.24999C10.17 6.52999 9.95 6.74999 9.67 6.74999Z" fill="#1D542A"/>
<path d="M24.545 6.37H13.98C13.705 6.37 13.48 6.145 13.48 5.87C13.48 5.595 13.705 5.37 13.98 5.37H24.545C24.82 5.37 25.045 5.595 25.045 5.87C25.045 6.145 24.82 6.37 24.545 6.37Z" fill="#1D542A"/>
<path d="M17.84 19.67C17.06 20.295 16.08 20.67 15 20.67C13.925 20.67 12.94 20.295 12.165 19.67C12.435 18.375 13.575 17.39 14.95 17.365C14.965 17.37 14.985 17.37 15 17.37C15.015 17.37 15.035 17.37 15.05 17.365C16.43 17.39 17.57 18.375 17.84 19.67Z" fill="#DBFDE2"/>
<path d="M15 21.17C13.855 21.17 12.74 20.775 11.85 20.06C11.705 19.94 11.635 19.75 11.675 19.57C11.995 18.03 13.37 16.895 14.94 16.865H15H15.06C16.635 16.895 18.01 18.03 18.33 19.57C18.37 19.755 18.3 19.945 18.155 20.06C17.245 20.785 16.155 21.17 15 21.17ZM12.74 19.475C14.075 20.39 15.925 20.39 17.27 19.475C16.945 18.56 16.075 17.905 15.085 17.87C15.01 17.88 14.99 17.88 14.92 17.87C13.93 17.9 13.06 18.555 12.74 19.475ZM14.9 16.89C14.895 16.89 14.895 16.89 14.9 16.89V16.89Z" fill="#1D542A"/>
<path d="M15 17.87C14.965 17.87 14.885 17.87 14.79 17.84C14.56 17.76 14.415 17.525 14.455 17.285C14.495 17.045 14.705 16.865 14.95 16.865H15.05C15.295 16.865 15.505 17.045 15.545 17.285C15.585 17.53 15.44 17.765 15.205 17.84C15.115 17.87 15.035 17.87 15 17.87ZM14.995 16.87C14.99 16.87 14.95 16.87 14.895 16.89L14.97 17.125L14.995 16.87Z" fill="#1D542A"/>
<path d="M19.515 16.16C19.515 17.575 18.86 18.84 17.84 19.67C17.57 18.375 16.43 17.39 15.05 17.365C15.905 17.345 16.595 16.64 16.595 15.775C16.595 14.9 15.88 14.185 15 14.185C14.125 14.185 13.41 14.9 13.41 15.775C13.41 16.64 14.1 17.345 14.95 17.365C13.575 17.39 12.435 18.375 12.165 19.67C11.145 18.84 10.49 17.575 10.49 16.16C10.49 13.665 12.51 11.645 15 11.645C17.495 11.645 19.515 13.665 19.515 16.16Z" fill="#DBFDE2"/>
<path d="M17.84 20.17C17.785 20.17 17.725 20.16 17.675 20.14C17.51 20.08 17.39 19.94 17.355 19.77C17.13 18.685 16.155 17.885 15.045 17.865C15.03 17.865 15.015 17.865 15.005 17.865C14.99 17.865 14.98 17.865 14.965 17.865C13.855 17.885 12.885 18.685 12.66 19.77C12.625 19.94 12.5 20.08 12.34 20.14C12.175 20.2 11.99 20.165 11.855 20.055C10.675 19.095 9.995 17.675 9.995 16.155C9.995 13.39 12.245 11.14 15.005 11.14C17.77 11.14 20.02 13.39 20.02 16.155C20.02 17.67 19.34 19.09 18.16 20.055C18.065 20.13 17.955 20.17 17.84 20.17ZM16.51 17.225C17.175 17.555 17.72 18.1 18.055 18.77C18.675 18.045 19.02 17.13 19.02 16.165C19.02 13.95 17.22 12.15 15.005 12.15C12.795 12.15 10.995 13.95 10.995 16.165C10.995 17.13 11.34 18.05 11.955 18.77C12.29 18.1 12.835 17.555 13.5 17.225C13.14 16.85 12.915 16.335 12.915 15.775C12.915 14.625 13.855 13.685 15.005 13.685C16.16 13.685 17.1 14.625 17.1 15.775C17.095 16.335 16.87 16.845 16.51 17.225ZM15 14.685C14.4 14.685 13.91 15.175 13.91 15.775C13.91 16.36 14.38 16.85 14.96 16.865H15H15.04C15.625 16.85 16.095 16.36 16.095 15.775C16.095 15.175 15.605 14.685 15 14.685Z" fill="#1D542A"/>
<path d="M16.595 15.775C16.595 16.64 15.905 17.345 15.05 17.365H14.95C14.1 17.345 13.41 16.64 13.41 15.775C13.41 14.9 14.125 14.185 15 14.185C15.88 14.185 16.595 14.9 16.595 15.775Z" fill="#DBFDE2"/>
<path d="M14.95 17.865C13.82 17.84 12.91 16.9 12.91 15.775C12.91 14.625 13.85 13.685 15 13.685C16.155 13.685 17.095 14.625 17.095 15.775C17.095 16.9 16.185 17.84 15.06 17.865H14.95ZM15 14.685C14.4 14.685 13.91 15.175 13.91 15.775C13.91 16.36 14.38 16.85 14.96 16.865H15.05C15.62 16.85 16.095 16.36 16.095 15.775C16.095 15.175 15.605 14.685 15 14.685Z" fill="#1D542A"/>
<path d="M15 17.87C14.965 17.87 14.885 17.87 14.79 17.84C14.56 17.76 14.415 17.525 14.455 17.285C14.495 17.045 14.705 16.865 14.95 16.865H15.05C15.295 16.865 15.505 17.045 15.545 17.285C15.585 17.53 15.44 17.765 15.205 17.84C15.115 17.87 15.035 17.87 15 17.87ZM14.995 16.87C14.99 16.87 14.95 16.87 14.895 16.89L14.97 17.125L14.995 16.87Z" fill="#1D542A"/>
<path d="M23.99 24.59H6.015C5.74 24.59 5.515 24.365 5.515 24.09C5.515 23.815 5.74 23.59 6.015 23.59H23.995C24.27 23.59 24.495 23.815 24.495 24.09C24.495 24.365 24.27 24.59 23.99 24.59Z" fill="#1D542A"/>
</svg>
