<svg width="24" height="24" viewBox="0 0 24 24" fill="none" xmlns="http://www.w3.org/2000/svg">
    <path d="M9.8699 12.9133C9.7523 12.7938 9.65896 12.6516 9.59526 12.4949C9.53156 12.3383 9.49877 12.1702 9.49877 12.0005C9.49877 11.8308 9.53156 11.6627 9.59526 11.5061C9.65896 11.3494 9.7523 11.2072 9.8699 11.0877L15.6289 5.19946C15.7465 5.07995 15.8398 4.93775 15.9035 4.78109C15.9672 4.62442 16 4.45638 16 4.28666C16 4.11694 15.9672 3.9489 15.9035 3.79223C15.8398 3.63556 15.7465 3.49337 15.6289 3.37385C15.3938 3.1344 15.0758 3 14.7443 3C14.4129 3 14.0949 3.1344 13.8598 3.37385L8.1008 9.27494C7.39592 9.99812 7 10.9784 7 12.0005C7 13.0226 7.39592 14.0029 8.1008 14.7261L13.8598 20.6271C14.0935 20.8647 14.4089 20.9986 14.738 21C14.9032 21.001 15.0669 20.9685 15.2197 20.9045C15.3726 20.8406 15.5116 20.7463 15.6289 20.6271C15.7465 20.5076 15.8398 20.3654 15.9035 20.2088C15.9672 20.0521 16 19.8841 16 19.7143C16 19.5446 15.9672 19.3766 15.9035 19.2199C15.8398 19.0632 15.7465 18.9211 15.6289 18.8015L9.8699 12.9133Z" fill="black"/>
</svg>
