<svg width="114" height="114" viewBox="0 0 114 114" fill="none" xmlns="http://www.w3.org/2000/svg">
<path d="M103.312 57C103.312 60.9544 98.4675 64.125 97.47 67.8656C96.4725 71.6062 99.0375 76.8788 97.1138 80.1562C95.19 83.4337 89.3475 83.8969 86.64 86.64C83.9325 89.3831 83.505 95.19 80.1562 97.1138C76.8075 99.0375 71.6062 96.4725 67.8656 97.47C64.125 98.4675 60.9544 103.312 57 103.312C53.0456 103.312 49.875 98.4675 46.3125 97.47C42.75 96.4725 37.2994 99.0375 34.0219 97.1138C30.7444 95.19 30.2812 89.3475 27.5381 86.64C24.795 83.9325 18.9881 83.505 17.0644 80.1562C15.1406 76.8075 17.7056 71.6062 16.7081 67.8656C15.7106 64.125 10.6875 60.9544 10.6875 57C10.6875 53.0456 15.5325 49.875 16.53 46.3125C17.5275 42.75 14.9625 37.2994 16.8862 34.0219C18.81 30.7444 24.6525 30.1031 27.36 27.36C30.0675 24.6169 30.495 18.81 33.8438 16.8862C37.1925 14.9625 42.3937 17.5275 46.1344 16.53C49.875 15.5325 53.0456 10.6875 57 10.6875C60.9544 10.6875 64.125 15.5325 67.8656 16.53C71.6062 17.5275 76.8788 14.9625 80.1562 16.8862C83.4337 18.81 83.8969 24.6525 86.64 27.36C89.3831 30.0675 95.19 30.495 97.1138 33.8438C99.0375 37.1925 96.4725 42.3937 97.47 46.1344C98.4675 49.875 103.312 53.0456 103.312 57Z" fill="#109138"/>
<path d="M57 87.2812C73.7239 87.2812 87.2812 73.7239 87.2812 57C87.2812 40.2761 73.7239 26.7188 57 26.7188C40.2761 26.7188 26.7188 40.2761 26.7188 57C26.7188 73.7239 40.2761 87.2812 57 87.2812Z" fill="#20BF55"/>
<path d="M53.9008 65.4431C53.5498 65.4448 53.2019 65.3763 52.8777 65.2417C52.5535 65.1071 52.2594 64.9092 52.0127 64.6594L43.7121 56.5013C43.2117 56.0003 42.9307 55.3212 42.9307 54.6131C42.9307 53.9051 43.2117 53.226 43.7121 52.725C44.213 52.2247 44.8921 51.9436 45.6002 51.9436C46.3082 51.9436 46.9873 52.2247 47.4883 52.725L53.9008 59.0663L66.5121 46.6331C67.0175 46.1324 67.7013 45.8529 68.4128 45.8563C69.1243 45.8596 69.8054 46.1455 70.3061 46.6509C70.8069 47.1564 71.0863 47.8401 71.083 48.5517C71.0797 49.2632 70.7938 49.9442 70.2883 50.445L55.7533 64.695C55.5128 64.9407 55.2241 65.1339 54.9053 65.2627C54.5865 65.3914 54.2445 65.4529 53.9008 65.4431Z" fill="white"/>
</svg>
