<svg id="online-shopping" xmlns="http://www.w3.org/2000/svg" width="45.193" height="45.186" viewBox="0 0 45.193 45.186">
  <g id="https:_www.flaticon.com_packs_delivery-196" data-name="https://www.flaticon.com/packs/delivery-196" transform="translate(0)">
    <path id="Path_11961" data-name="Path 11961" d="M42.462,23.841a2.839,2.839,0,0,0-.968.171,2.68,2.68,0,0,0-2.725-2.669,2.83,2.83,0,0,0-1.125.233,2.664,2.664,0,0,0-2.567-1.8,2.838,2.838,0,0,0-.964.169V2.442A2.409,2.409,0,0,0,31.707.036H11.589A2.409,2.409,0,0,0,9.183,2.442v6.4H5.554L5.142,6.656a.882.882,0,0,0-.98-.711c-.038,0-3.279-.008-3.279-.008a.883.883,0,1,0,0,1.765h2.66l2.516,13.35a.883.883,0,0,0,.867.719h.963a3.23,3.23,0,0,0,1.294,1.782V36.742a2.407,2.407,0,0,0,2.4,2.4l16.3.032c.034.034.066.068.1.1a5.247,5.247,0,0,1,1.276,4.144,1.8,1.8,0,0,0,1.8,1.8h1.5a.883.883,0,1,0,0-1.765h-1.5a.035.035,0,0,1-.03-.033A6.9,6.9,0,0,0,29.3,38.1a8.867,8.867,0,0,0-1.412-1.19c-.927-.677-1.49-1.13-1.49-1.717V28.812a.652.652,0,0,1,.142-.484,1.043,1.043,0,0,1,.815.075,2.021,2.021,0,0,1,1.3,1.9V33.09a.883.883,0,0,0,1.765,0V18.047a.969.969,0,1,1,1.927,0V28.159a.883.883,0,1,0,1.765,0V22.608a.946.946,0,0,1,.964-1.07.975.975,0,0,1,.665.249,1.079,1.079,0,0,1,.3.822v6.477a.883.883,0,0,0,1.765,0V24.179a.946.946,0,0,1,.964-1.07.975.975,0,0,1,.665.249,1.079,1.079,0,0,1,.3.822V30.01a.883.883,0,0,0,1.765,0V26.678a.97.97,0,1,1,1.93,0v8.817a5.842,5.842,0,0,1-.711,2.351,5.186,5.186,0,0,0-.687,2.749v2.829a.037.037,0,0,1-.033.033H40.485a.883.883,0,1,0,0,1.765H42a1.8,1.8,0,0,0,1.8-1.8V40.595a3.476,3.476,0,0,1,.492-1.942,7.565,7.565,0,0,0,.9-3.013.883.883,0,0,0,.005-.1V26.678a2.694,2.694,0,0,0-2.731-2.837ZM16.575,1.8H26.722V2.73a.932.932,0,0,1-.931.931H17.506a.932.932,0,0,1-.931-.931V1.8ZM7.889,20.006H7.658l-1.771-9.4H24.639l-1.769,9.4h-.233a3.215,3.215,0,0,0-6.182,0H14.071a3.215,3.215,0,0,0-6.182,0ZM21,20.889a1.45,1.45,0,1,1-1.449-1.449A1.452,1.452,0,0,1,21,20.889Zm-11.465,0a1.45,1.45,0,1,1,1.451,1.451A1.452,1.452,0,0,1,9.53,20.889ZM11.589,37.38a.648.648,0,0,1-.641-.638V34.733H24.63V35.2a3.019,3.019,0,0,0,1.058,2.212Zm20.758-22a2.839,2.839,0,0,0-.964-.169,2.693,2.693,0,0,0-2.728,2.837v9.042a3.846,3.846,0,0,0-.668-.334,2.605,2.605,0,0,0-2.437.109,2.21,2.21,0,0,0-.92,1.927s0,.009,0,.013v4.163H10.949V24.105h.033a3.22,3.22,0,0,0,3.09-2.334h2.383a3.214,3.214,0,0,0,6.183,0H23.6a.883.883,0,0,0,.867-.719l2.1-11.165A.883.883,0,0,0,25.7,8.842H10.949v-6.4a.641.641,0,0,1,.641-.641h3.22V2.73a2.7,2.7,0,0,0,2.7,2.7h8.285a2.7,2.7,0,0,0,2.7-2.7V1.8h3.22a.642.642,0,0,1,.641.641V15.38Z" transform="translate(0 -0.036)" fill="#0d1e63"/>
    <path id="Path_11962" data-name="Path 11962" d="M163.816,146.95a.883.883,0,0,0,.883-.883v-3.242a.883.883,0,0,0-1.765,0v3.242A.883.883,0,0,0,163.816,146.95Z" transform="translate(-148.551 -129.417)" fill="#0d1e63"/>
    <path id="Path_11963" data-name="Path 11963" d="M116.178,144.217v-1.391a.883.883,0,0,0-1.765,0v1.391a.883.883,0,0,0,1.765,0Z" transform="translate(-104.314 -129.417)" fill="#0d1e63"/>
    <path id="Path_11964" data-name="Path 11964" d="M212.335,145.1a.883.883,0,0,0,.883-.883v-1.391a.883.883,0,0,0-1.765,0v1.391A.883.883,0,0,0,212.335,145.1Z" transform="translate(-192.788 -129.417)" fill="#0d1e63"/>
    <path id="Path_11965" data-name="Path 11965" d="M404.657,491.964a.883.883,0,0,0,0,1.765h0a.883.883,0,0,0,0-1.765Z" transform="translate(-368.134 -448.543)" fill="#0d1e63"/>
  </g>
</svg>
