<svg width="121" height="125" viewBox="0 0 121 125" fill="none" xmlns="http://www.w3.org/2000/svg">
<g clip-path="url(#clip0_14388_9235)">
<path d="M50.947 18.9606C43.6269 18.9606 38.4605 20.8046 35.1358 22.7119C32.3916 24.2861 31.5412 25.4728 31.0766 26.0188H14.0507C11.1612 26.0188 8.78369 28.4021 8.78369 31.3028V38.361H93.1069V31.3028C93.1069 28.4021 90.7294 26.0188 87.84 26.0188H70.814C70.3466 25.4702 69.4947 24.2837 66.7549 22.7119C63.4301 20.8046 58.267 18.9606 50.947 18.9606Z" fill="#FC6067"/>
<path d="M80.0342 26.0189C82.9236 26.0189 85.2998 28.4022 85.3012 31.3029V38.3611H93.1073V31.3029C93.1073 28.4022 90.7297 26.0189 87.8403 26.0189H80.0342Z" fill="#FB4F56"/>
<path d="M7.02002 57.7578V115.955H94.8706V57.7578H7.02002Z" fill="#FCB860"/>
<path d="M87.8438 57.7578V115.955H94.871V57.7578H87.8438Z" fill="#FBB04F"/>
<path d="M10.5344 36.5903C9.9328 36.5957 9.37617 36.911 9.05892 37.424L0.264644 51.5368C0.0661113 51.8581 -0.0241912 52.2349 0.00701627 52.6115V55.9873C0.00701627 60.8422 3.94819 64.816 8.78416 64.816C11.6653 64.816 14.209 63.4414 15.8114 61.2749C17.4177 63.4404 19.9617 64.816 22.8421 64.816C25.7215 64.816 28.2632 63.4425 29.8658 61.2782C31.4685 63.4425 34.0068 64.816 36.8862 64.816C39.7668 64.816 42.314 63.4407 43.9203 61.2749C45.5228 63.4414 48.0663 64.816 50.9475 64.816C53.828 64.816 56.3719 63.4407 57.9782 61.2749C59.5806 63.4414 62.1208 64.816 65.002 64.816C67.8831 64.816 70.4267 63.4414 72.0292 61.2749C73.6355 63.4407 76.1828 64.816 79.0633 64.816C81.9427 64.816 84.481 63.4425 86.0836 61.2782C87.6863 63.4425 90.228 64.816 93.1074 64.816C97.9434 64.816 101.898 60.8421 101.898 55.9873V52.4738C101.9 52.0931 101.778 51.7218 101.552 51.4162L92.8466 37.424C92.5259 36.9054 91.9617 36.5904 91.3541 36.5903H10.5344Z" fill="#FC6067"/>
<path d="M0.0169823 52.4668C0.016965 52.5135 0.0029056 52.5628 0.00642474 52.6114V55.9873C0.00642474 60.8421 3.94761 64.8159 8.78359 64.8159C11.6648 64.8159 14.2083 63.4414 15.8108 61.2749C17.4171 63.4404 19.9611 64.8159 22.8415 64.8159C25.7209 64.8159 28.2626 63.4425 29.8653 61.2782C31.4679 63.4425 34.0062 64.8159 36.8856 64.8159C39.7662 64.8159 42.3134 63.4406 43.9197 61.2749C45.5222 63.4414 48.0658 64.8159 50.9469 64.8159C53.8274 64.8159 56.3713 63.4406 57.9776 61.2749C59.58 63.4414 62.1203 64.8159 65.0014 64.8159C67.8825 64.8159 70.4261 63.4414 72.0286 61.2749C73.6349 63.4406 76.1822 64.8159 79.0627 64.8159C81.9421 64.8159 84.4804 63.4425 86.083 61.2782C87.6857 63.4425 90.2274 64.8159 93.1068 64.8159C97.9428 64.8159 101.898 60.8421 101.898 55.9873V52.4737V52.467L0.0169823 52.4668Z" fill="#FB4F56"/>
<path d="M23.7167 36.5903L15.811 52.4668V61.2747C17.4173 63.4403 19.9613 64.816 22.8417 64.816C25.7211 64.816 28.2628 63.4425 29.8655 61.2782V52.4668L35.7947 36.5903H23.7167ZM45.8963 36.5903L43.9199 52.4668V61.2747C45.5224 63.4413 48.066 64.816 50.9471 64.816C53.8259 64.816 56.368 63.4417 57.9744 61.2782V52.4668L55.998 36.5903H45.8963ZM66.103 36.5903L72.0322 52.4668V61.2782C73.6349 63.4425 76.1766 64.816 79.056 64.816C81.9364 64.816 84.4804 63.4403 86.0867 61.2747V52.4668L78.1811 36.5903H66.103Z" fill="#E7EBEF"/>
<path d="M15.811 52.4668V61.2747C17.4173 63.4402 19.9613 64.8159 22.8417 64.8159C25.7211 64.8159 28.2628 63.4424 29.8655 61.2782V52.4668H15.811ZM43.9199 52.4668V61.2747C45.5224 63.4412 48.066 64.8159 50.9471 64.8159C53.8259 64.8159 56.368 63.4417 57.9744 61.2782V52.4668H43.9199ZM72.0322 52.4668V61.2782C73.6349 63.4425 76.1766 64.8159 79.056 64.8159C81.9364 64.8159 84.4804 63.4402 86.0867 61.2747V52.4668H72.0322Z" fill="#DBE1E7"/>
<path d="M85.3008 36.5903C88.3744 41.5328 91.4495 46.4742 94.524 51.4162C94.7504 51.7221 94.8717 52.0929 94.8706 52.4738H101.898C101.899 52.0931 101.778 51.7219 101.551 51.4162L92.8461 37.424C92.5254 36.9054 91.9611 36.5904 91.3535 36.5903H85.3008Z" fill="#FB4F56"/>
<path d="M94.8706 52.4685V55.9874C94.8706 59.5896 92.6889 62.6997 89.5898 64.0684L89.6005 64.0721C89.8564 64.1841 90.1188 64.2833 90.3862 64.3719C90.4208 64.3853 90.4546 64.3986 90.4892 64.4053C90.7328 64.4826 90.9814 64.5486 91.2338 64.6053C91.3163 64.6253 91.4008 64.6318 91.4842 64.6518C91.706 64.6918 91.9291 64.7366 92.1567 64.7619C92.4691 64.7952 92.7856 64.8152 93.1072 64.8152C97.9431 64.8152 101.898 60.8414 101.898 55.9865V52.4695L94.8706 52.4685Z" fill="#FB3B43"/>
<path d="M14.0498 73.6293V115.955H45.6801V73.6293C45.6766 72.6549 44.8869 71.8679 43.9163 71.8717H15.7227C14.7329 71.9617 14.0485 72.7222 14.0498 73.6293Z" fill="#E7EBEF"/>
<path d="M49.1948 73.6293V105.383C49.1982 106.352 49.9801 107.137 50.9456 107.141H86.0774C87.0479 107.144 87.8377 106.357 87.8411 105.383V73.6293C87.8376 72.6549 87.0479 71.8679 86.0774 71.8717H50.8613C49.8779 71.9617 49.1936 72.7222 49.1948 73.6293Z" fill="#68B1FC"/>
<path d="M22.6613 78.9279C22.2273 78.9715 21.825 79.1755 21.5325 79.5003C21.2401 79.8252 21.0785 80.2476 21.0791 80.6855V94.7983C21.0799 95.03 21.1262 95.2591 21.2153 95.4729C21.3044 95.6866 21.4345 95.8807 21.5983 96.0439C21.7621 96.2071 21.9563 96.3362 22.1698 96.4241C22.3833 96.5119 22.612 96.5568 22.8428 96.5559H36.8878C37.1185 96.5568 37.3472 96.5119 37.5608 96.4241C37.7743 96.3362 37.9685 96.2071 38.1323 96.0439C38.2961 95.8807 38.4262 95.6866 38.5153 95.4729C38.6044 95.2591 38.6506 95.03 38.6515 94.7983V80.6855C38.6506 80.4538 38.6044 80.2244 38.5153 80.0107C38.4262 79.797 38.2961 79.6031 38.1323 79.4399C37.9685 79.2767 37.7743 79.1474 37.5608 79.0595C37.3472 78.9716 37.1185 78.927 36.8878 78.9279H22.8428C22.7824 78.9248 22.7216 78.9248 22.6613 78.9279Z" fill="#68B1FC"/>
<path d="M3.5137 114.195C3.04778 114.193 2.60022 114.378 2.26948 114.707C1.93873 115.036 1.75188 115.484 1.75001 115.952V123.007C1.74913 123.24 1.79414 123.47 1.88246 123.685C1.97078 123.901 2.10066 124.096 2.26461 124.261C2.42856 124.425 2.62334 124.556 2.83772 124.644C3.0521 124.733 3.28184 124.778 3.5137 124.777H98.3778C98.8437 124.776 99.2898 124.588 99.618 124.256C99.9461 123.924 100.129 123.475 100.128 123.007V115.952C100.126 115.487 99.9409 115.041 99.6131 114.712C99.2853 114.383 98.8413 114.197 98.3778 114.195H3.5137Z" fill="#FC6067"/>
<path d="M29.8589 78.929C30.3248 78.9272 30.7724 79.1111 31.1031 79.4406C31.4338 79.77 31.6207 80.218 31.6226 80.6857V94.7984C31.6207 95.2661 31.4339 95.7141 31.1031 96.0435C30.7724 96.373 30.3248 96.5571 29.8589 96.5553H36.8861C37.352 96.5571 37.7996 96.373 38.1304 96.0435C38.4611 95.7141 38.6479 95.2661 38.6498 94.7984V80.6857C38.6479 80.218 38.4611 79.77 38.1303 79.4406C37.7996 79.1111 37.352 78.9272 36.8861 78.929H29.8589Z" fill="#4FA4FB"/>
<path d="M79.0493 71.8706C80.0199 71.8671 80.8095 72.6531 80.813 73.6274V105.384C80.8095 106.358 80.0199 107.144 79.0493 107.141H86.0765C87.0471 107.144 87.8368 106.358 87.8402 105.384V73.6274C87.8367 72.6531 87.0471 71.8669 86.0765 71.8706H79.0493Z" fill="#4FA4FB"/>
<path d="M91.3574 114.199C91.821 114.201 92.265 114.386 92.5928 114.715C92.9206 115.044 93.1055 115.49 93.1074 115.956V123.01C93.1091 123.478 92.9258 123.927 92.5976 124.259C92.2694 124.591 91.8233 124.779 91.3574 124.781H98.3846C98.8506 124.779 99.2967 124.591 99.6248 124.259C99.953 123.927 100.136 123.478 100.135 123.01V115.956C100.133 115.49 99.9478 115.044 99.62 114.715C99.2922 114.386 98.8482 114.201 98.3846 114.199H91.3574Z" fill="#FB4F56"/>
<g clip-path="url(#clip1_14388_9235)">
<path d="M95.7456 0.352783C82.0054 0.352783 70.7456 11.6125 70.7456 25.3528C70.7456 39.093 82.0054 50.3528 95.7456 50.3528C109.486 50.3528 120.746 39.093 120.746 25.3528C120.746 11.6125 109.486 0.352783 95.7456 0.352783Z" fill="#FF5245"/>
<path d="M120.746 25.3528C120.746 39.093 109.486 50.3528 95.7456 50.3528V0.352783C109.486 0.352783 120.746 11.6125 120.746 25.3528Z" fill="#ED2626"/>
<path d="M99.8764 25.3528L108.167 33.6439L104.037 37.7747L95.7456 29.4835L87.4545 37.7747L83.3237 33.6439L91.6148 25.3528L83.3237 17.0617L87.4545 12.9309L95.7456 21.222L104.037 12.9309L108.167 17.0617L99.8764 25.3528Z" fill="white"/>
<path d="M99.8764 25.3528L108.167 33.6439L104.037 37.7747L95.7456 29.4835V21.222L104.037 12.9309L108.167 17.0617L99.8764 25.3528Z" fill="#D3D3D8"/>
</g>
</g>
<defs>
<clipPath id="clip0_14388_9235">
<rect width="121" height="125" fill="white"/>
</clipPath>
<clipPath id="clip1_14388_9235">
<rect width="50" height="50" fill="white" transform="translate(70.7456 0.352783)"/>
</clipPath>
</defs>
</svg>
